<svg width="32" height="32" viewBox="0 0 32 32" fill="none" xmlns="http://www.w3.org/2000/svg">
<g opacity="0.5">
<path d="M18.6673 2.66602H8.00065C7.29341 2.66602 6.61513 2.94697 6.11503 3.44706C5.61494 3.94716 5.33398 4.62544 5.33398 5.33268V26.666C5.33398 27.3733 5.61494 28.0515 6.11503 28.5516C6.61513 29.0517 7.29341 29.3327 8.00065 29.3327H24.0006C24.7079 29.3327 25.3862 29.0517 25.8863 28.5516C26.3864 28.0515 26.6673 27.3733 26.6673 26.666V10.666L18.6673 2.66602Z" stroke="#4F2D7F" stroke-width="2" stroke-linecap="round" stroke-linejoin="round"/>
<path d="M18.666 2.66602V10.666H26.666" stroke="#4F2D7F" stroke-width="2" stroke-linecap="round" stroke-linejoin="round"/>
<path d="M21.3327 17.334H10.666" stroke="#4F2D7F" stroke-width="2" stroke-linecap="round" stroke-linejoin="round"/>
<path d="M21.3327 22.666H10.666" stroke="#4F2D7F" stroke-width="2" stroke-linecap="round" stroke-linejoin="round"/>
<path d="M13.3327 12H11.9993H10.666" stroke="#4F2D7F" stroke-width="2" stroke-linecap="round" stroke-linejoin="round"/>
</g>
</svg>
